<svg xmlns="http://www.w3.org/2000/svg" xmlns:xlink="http://www.w3.org/1999/xlink" width="840" height="581.04"><rect width="840" height="581.04" rx="5" ry="5" class="a"/><svg y="0%" x="0%"><circle cx="20" cy="20" r="6" fill="#ff5f58"/><circle cx="40" cy="20" r="6" fill="#ffbd2e"/><circle cx="60" cy="20" r="6" fill="#18c132"/></svg><svg height="521.04" viewBox="0 0 80 52.104" width="800" x="15" xmlns="http://www.w3.org/2000/svg" xmlns:xlink="http://www.w3.org/1999/xlink" y="50"><style>.a{fill:#1e1f29}.h,.i{fill:#d78700;font-weight:700}.i{fill:#f6f6f6}.j{fill:#ebece6}.k{fill:#49baff;font-weight:700}</style><g font-size="1.67" font-family="Monaco,Consolas,Menlo,'Bitstream Vera Sans Mono','Powerline Symbols',monospace"><defs><symbol id="a"><path fill="transparent" d="M0 0h80v25H0z"/></symbol><symbol id="b"><path fill="#e4e4e4" d="M0 0h1.102v2.171H0z"/></symbol></defs><path class="a" d="M0 0h80v52.104H0z"/><svg width="80"><svg><use xlink:href="#a"/><use xlink:href="#b" x="41.996" y="52.079"/><text y="3.841" class="h">~/dev/temp</text><text x="11.022" y="3.841" class="i">$</text><text x="13.026" y="3.841" class="j">cd</text><text x="16.032" y="3.841" class="j">my-dope-component/</text><text y="6.012" class="i">master*</text><text x="8.016" y="6.012" class="j">in</text><text x="11.022" y="6.012" class="h">~/dev/temp/my-dope-component</text><text x="40.08" y="6.012" class="i">$</text><text x="42.084" y="6.012" class="j">tree</text><text y="8.183" class="k">.</text><text y="10.354" class="j">├──</text><text x="4.008" y="10.354" class="j">README.md</text><text y="12.525" class="j">├──</text><text x="4.008" y="12.525" class="k">example</text><text x="11.022" y="12.525" class="j">/</text><text y="14.696" class="j">│</text><text x="4.008" y="14.696" class="j">├──</text><text x="8.016" y="14.696" class="j">README.md</text><text y="16.867" class="j">│</text><text x="4.008" y="16.867" class="j">├──</text><text x="8.016" y="16.867" class="j">package.json</text><text y="19.038" class="j">│</text><text x="4.008" y="19.038" class="j">├──</text><text x="8.016" y="19.038" class="k">public</text><text x="14.028" y="19.038" class="j">/</text><text y="21.209" class="j">│</text><text x="4.008" y="21.209" class="j">│</text><text x="8.016" y="21.209" class="j">├──</text><text x="12.024" y="21.209" class="j">index.html</text><text y="23.38" class="j">│</text><text x="4.008" y="23.38" class="j">│</text><text x="8.016" y="23.38" class="j">└──</text><text x="12.024" y="23.38" class="j">manifest.json</text><text y="25.551" class="j">│</text><text x="4.008" y="25.551" class="j">├──</text><text x="8.016" y="25.551" class="k">src</text><text x="11.022" y="25.551" class="j">/</text><text y="27.722" class="j">│</text><text x="4.008" y="27.722" class="j">│</text><text x="8.016" y="27.722" class="j">├──</text><text x="12.024" y="27.722" class="j">App.js</text><text y="29.893" class="j">│</text><text x="4.008" y="29.893" class="j">│</text><text x="8.016" y="29.893" class="j">├──</text><text x="12.024" y="29.893" class="j">index.css</text><text y="32.064" class="j">│</text><text x="4.008" y="32.064" class="j">│</text><text x="8.016" y="32.064" class="j">└──</text><text x="12.024" y="32.064" class="j">index.js</text><text y="34.235" class="j">│</text><text x="4.008" y="34.235" class="j">└──</text><text x="8.016" y="34.235" class="j">yarn.lock</text><text y="36.406" class="j">├──</text><text x="4.008" y="36.406" class="j">package.json</text><text y="38.577" class="j">├──</text><text x="4.008" y="38.577" class="j">rollup.config.js</text><text y="40.748" class="j">└──</text><text x="4.008" y="40.748" class="k">src</text><text x="7.014" y="40.748" class="j">/</text><text x="4.008" y="42.919" class="j">├──</text><text x="8.016" y="42.919" class="j">index.js</text><text x="4.008" y="45.09" class="j">├──</text><text x="8.016" y="45.09" class="j">styles.css</text><text x="4.008" y="47.261" class="j">└──</text><text x="8.016" y="47.261" class="j">test.js</text><text y="51.603" class="j">4</text><text x="2.004" y="51.603" class="j">directories,</text><text x="15.03" y="51.603" class="j">14</text><text x="18.036" y="51.603" class="j">files</text><text y="53.774" class="i">master*</text><text x="8.016" y="53.774" class="j">in</text><text x="11.022" y="53.774" class="h">~/dev/temp/my-dope-component</text><text x="40.08" y="53.774" class="i">$</text></svg></svg></g></svg></svg>